<mxfile host="app.diagrams.net" modified="2023-05-22T20:55:26.675Z" agent="Mozilla/5.0 (Macintosh; Intel Mac OS X 10_15_7) AppleWebKit/537.36 (KHTML, like Gecko) Chrome/113.0.0.0 Safari/537.36" etag="Uz4T51xkr9DQbY2bsEkv" version="21.3.2" type="device">
  <diagram name="Page-1" id="9oYzcy-kETdnECsgGsuO">
    <mxGraphModel dx="2074" dy="725" grid="0" gridSize="10" guides="1" tooltips="1" connect="1" arrows="1" fold="1" page="1" pageScale="1" pageWidth="850" pageHeight="1100" math="1" shadow="0">
      <root>
        <mxCell id="0" />
        <mxCell id="1" parent="0" />
        <mxCell id="i6pXBAHcR_zqz3FhFPHY-2" value="" style="rounded=1;whiteSpace=wrap;html=1;fillColor=#1ba1e2;strokeColor=none;fontColor=#ffffff;shadow=0;fillStyle=auto;glass=0;dashed=1;dashPattern=12 12;opacity=60;" vertex="1" parent="1">
          <mxGeometry x="340" y="58" width="60" height="480" as="geometry" />
        </mxCell>
        <mxCell id="i6pXBAHcR_zqz3FhFPHY-17" value="" style="endArrow=none;rounded=0;strokeWidth=10;fontColor=#FF3333;fillColor=#d80073;strokeColor=#A50040;exitX=0.75;exitY=0.432;exitDx=0;exitDy=0;exitPerimeter=0;" edge="1" parent="1" source="i6pXBAHcR_zqz3FhFPHY-7" target="i6pXBAHcR_zqz3FhFPHY-8">
          <mxGeometry width="50" height="50" relative="1" as="geometry">
            <mxPoint x="144.5" y="393" as="sourcePoint" />
            <mxPoint x="346.5" y="276" as="targetPoint" />
            <Array as="points" />
          </mxGeometry>
        </mxCell>
        <mxCell id="i6pXBAHcR_zqz3FhFPHY-16" value="" style="endArrow=none;rounded=0;strokeWidth=10;fontColor=#FF3333;fillColor=#d80073;strokeColor=#A50040;" edge="1" parent="1" source="i6pXBAHcR_zqz3FhFPHY-5" target="i6pXBAHcR_zqz3FhFPHY-10">
          <mxGeometry width="50" height="50" relative="1" as="geometry">
            <mxPoint x="154" y="220" as="sourcePoint" />
            <mxPoint x="356" y="103" as="targetPoint" />
            <Array as="points" />
          </mxGeometry>
        </mxCell>
        <mxCell id="i6pXBAHcR_zqz3FhFPHY-14" value="" style="endArrow=none;rounded=0;strokeWidth=10;entryX=0.25;entryY=0.5;entryDx=0;entryDy=0;entryPerimeter=0;fontColor=#FF3333;fillColor=#d80073;strokeColor=#A50040;" edge="1" parent="1" target="i6pXBAHcR_zqz3FhFPHY-8">
          <mxGeometry width="50" height="50" relative="1" as="geometry">
            <mxPoint x="153" y="207" as="sourcePoint" />
            <mxPoint x="330" y="95" as="targetPoint" />
            <Array as="points" />
          </mxGeometry>
        </mxCell>
        <mxCell id="i6pXBAHcR_zqz3FhFPHY-1" value="" style="rounded=1;whiteSpace=wrap;html=1;fillColor=#e51400;fontColor=#ffffff;strokeColor=none;opacity=60;" vertex="1" parent="1">
          <mxGeometry x="108" y="178" width="60" height="240" as="geometry" />
        </mxCell>
        <mxCell id="i6pXBAHcR_zqz3FhFPHY-15" value="$$h_1(W_1,P_1(t))$$" style="text;html=1;strokeColor=none;fillColor=none;align=center;verticalAlign=middle;whiteSpace=wrap;rounded=0;rotation=-30;fontFamily=Comic Sans MS;fontSize=20;" vertex="1" parent="1">
          <mxGeometry x="182" y="89" width="127" height="74" as="geometry" />
        </mxCell>
        <mxCell id="i6pXBAHcR_zqz3FhFPHY-18" value="" style="endArrow=none;rounded=0;strokeWidth=10;fontColor=#FF3333;fillColor=#d80073;strokeColor=#A50040;" edge="1" parent="1" target="i6pXBAHcR_zqz3FhFPHY-10">
          <mxGeometry width="50" height="50" relative="1" as="geometry">
            <mxPoint x="158" y="379" as="sourcePoint" />
            <mxPoint x="358" y="115" as="targetPoint" />
            <Array as="points" />
          </mxGeometry>
        </mxCell>
        <mxCell id="i6pXBAHcR_zqz3FhFPHY-7" value="" style="ellipse;whiteSpace=wrap;html=1;aspect=fixed;strokeColor=#001DBC;fillColor=#000099;fontColor=#ffffff;" vertex="1" parent="1">
          <mxGeometry x="108" y="358" width="60" height="60" as="geometry" />
        </mxCell>
        <mxCell id="i6pXBAHcR_zqz3FhFPHY-19" value="" style="endArrow=none;rounded=0;strokeWidth=10;fontColor=#FF3333;fillColor=#d80073;strokeColor=#A50040;" edge="1" parent="1" source="i6pXBAHcR_zqz3FhFPHY-7" target="i6pXBAHcR_zqz3FhFPHY-11">
          <mxGeometry width="50" height="50" relative="1" as="geometry">
            <mxPoint x="147" y="564" as="sourcePoint" />
            <mxPoint x="337" y="385" as="targetPoint" />
            <Array as="points" />
          </mxGeometry>
        </mxCell>
        <mxCell id="i6pXBAHcR_zqz3FhFPHY-20" value="" style="endArrow=none;rounded=0;strokeWidth=10;fontColor=#FF3333;fillColor=#d80073;strokeColor=#A50040;" edge="1" parent="1" source="i6pXBAHcR_zqz3FhFPHY-7" target="i6pXBAHcR_zqz3FhFPHY-9">
          <mxGeometry width="50" height="50" relative="1" as="geometry">
            <mxPoint x="155" y="408" as="sourcePoint" />
            <mxPoint x="327" y="432" as="targetPoint" />
            <Array as="points" />
          </mxGeometry>
        </mxCell>
        <mxCell id="i6pXBAHcR_zqz3FhFPHY-21" value="" style="endArrow=none;rounded=0;strokeWidth=10;fontColor=#FF3333;fillColor=#d80073;strokeColor=#A50040;" edge="1" parent="1">
          <mxGeometry width="50" height="50" relative="1" as="geometry">
            <mxPoint x="157" y="211" as="sourcePoint" />
            <mxPoint x="354" y="423" as="targetPoint" />
            <Array as="points" />
          </mxGeometry>
        </mxCell>
        <mxCell id="i6pXBAHcR_zqz3FhFPHY-22" value="" style="endArrow=none;rounded=0;strokeWidth=10;fontColor=#FF3333;fillColor=#d80073;strokeColor=#A50040;exitX=0.9;exitY=0.667;exitDx=0;exitDy=0;exitPerimeter=0;" edge="1" parent="1" source="i6pXBAHcR_zqz3FhFPHY-5">
          <mxGeometry width="50" height="50" relative="1" as="geometry">
            <mxPoint x="157" y="290" as="sourcePoint" />
            <mxPoint x="354" y="502" as="targetPoint" />
            <Array as="points" />
          </mxGeometry>
        </mxCell>
        <mxCell id="i6pXBAHcR_zqz3FhFPHY-5" value="" style="ellipse;whiteSpace=wrap;html=1;aspect=fixed;strokeColor=#001DBC;fillColor=#000099;fontColor=#ffffff;" vertex="1" parent="1">
          <mxGeometry x="108" y="178" width="60" height="60" as="geometry" />
        </mxCell>
        <mxCell id="i6pXBAHcR_zqz3FhFPHY-12" value="" style="ellipse;whiteSpace=wrap;html=1;aspect=fixed;strokeColor=#001DBC;fillColor=#000099;fontColor=#ffffff;" vertex="1" parent="1">
          <mxGeometry x="751" y="253" width="60" height="60" as="geometry" />
        </mxCell>
        <mxCell id="i6pXBAHcR_zqz3FhFPHY-27" value="$$x(t)$$" style="text;html=1;strokeColor=none;fillColor=none;align=center;verticalAlign=middle;whiteSpace=wrap;rounded=0;fontSize=20;fontFamily=Comic Sans MS;" vertex="1" parent="1">
          <mxGeometry x="108" y="450" width="60" height="30" as="geometry" />
        </mxCell>
        <mxCell id="i6pXBAHcR_zqz3FhFPHY-28" value="$$h(t)$$" style="text;html=1;strokeColor=none;fillColor=none;align=center;verticalAlign=middle;whiteSpace=wrap;rounded=0;fontSize=20;fontFamily=Comic Sans MS;" vertex="1" parent="1">
          <mxGeometry x="336" y="550" width="60" height="30" as="geometry" />
        </mxCell>
        <mxCell id="i6pXBAHcR_zqz3FhFPHY-29" value="$$\hat{y}(t)$$" style="text;html=1;strokeColor=none;fillColor=none;align=center;verticalAlign=middle;whiteSpace=wrap;rounded=0;fontSize=20;fontFamily=Comic Sans MS;" vertex="1" parent="1">
          <mxGeometry x="754" y="356" width="60" height="30" as="geometry" />
        </mxCell>
        <mxCell id="i6pXBAHcR_zqz3FhFPHY-30" value="Memory Layer" style="text;html=1;strokeColor=none;fillColor=none;align=center;verticalAlign=middle;whiteSpace=wrap;rounded=0;fontSize=20;fontFamily=Comic Sans MS;" vertex="1" parent="1">
          <mxGeometry x="213" y="647" width="60" height="30" as="geometry" />
        </mxCell>
        <mxCell id="i6pXBAHcR_zqz3FhFPHY-31" value="Memory&lt;br&gt;Readout Layer" style="text;html=1;strokeColor=none;fillColor=none;align=center;verticalAlign=middle;whiteSpace=wrap;rounded=0;fontFamily=Comic Sans MS;fontSize=20;" vertex="1" parent="1">
          <mxGeometry x="452.5" y="647" width="60" height="30" as="geometry" />
        </mxCell>
        <mxCell id="i6pXBAHcR_zqz3FhFPHY-32" value="" style="endArrow=none;rounded=0;strokeWidth=10;fontColor=#FF3333;fillColor=#d80073;strokeColor=#A50040;" edge="1" parent="1">
          <mxGeometry width="50" height="50" relative="1" as="geometry">
            <mxPoint x="146" y="623" as="sourcePoint" />
            <mxPoint x="340" y="623" as="targetPoint" />
            <Array as="points" />
          </mxGeometry>
        </mxCell>
        <mxCell id="i6pXBAHcR_zqz3FhFPHY-34" value="" style="endArrow=none;rounded=0;strokeWidth=10;fontColor=#FF3333;fillColor=#a20025;strokeColor=#a50040;" edge="1" parent="1">
          <mxGeometry width="50" height="50" relative="1" as="geometry">
            <mxPoint x="383" y="93" as="sourcePoint" />
            <mxPoint x="577" y="93" as="targetPoint" />
            <Array as="points" />
          </mxGeometry>
        </mxCell>
        <mxCell id="i6pXBAHcR_zqz3FhFPHY-35" value="" style="rounded=1;whiteSpace=wrap;html=1;fillColor=#1ba1e2;strokeColor=none;fontColor=#ffffff;shadow=0;fillStyle=auto;glass=0;dashed=1;dashPattern=12 12;opacity=60;" vertex="1" parent="1">
          <mxGeometry x="564" y="58" width="60" height="480" as="geometry" />
        </mxCell>
        <mxCell id="i6pXBAHcR_zqz3FhFPHY-40" value="" style="endArrow=none;rounded=0;strokeWidth=10;fontColor=#FF3333;fillColor=#60a917;strokeColor=#2D7600;" edge="1" parent="1">
          <mxGeometry width="50" height="50" relative="1" as="geometry">
            <mxPoint x="385.5" y="623" as="sourcePoint" />
            <mxPoint x="579.5" y="623" as="targetPoint" />
            <Array as="points" />
          </mxGeometry>
        </mxCell>
        <mxCell id="i6pXBAHcR_zqz3FhFPHY-41" value="" style="endArrow=none;rounded=0;strokeWidth=10;fontColor=#FF3333;fillColor=#a20025;strokeColor=#a50040;" edge="1" parent="1" target="i6pXBAHcR_zqz3FhFPHY-37">
          <mxGeometry width="50" height="50" relative="1" as="geometry">
            <mxPoint x="381" y="182" as="sourcePoint" />
            <mxPoint x="575" y="182" as="targetPoint" />
            <Array as="points" />
          </mxGeometry>
        </mxCell>
        <mxCell id="i6pXBAHcR_zqz3FhFPHY-42" value="" style="endArrow=none;rounded=0;strokeWidth=10;fontColor=#FF3333;fillColor=#a20025;strokeColor=#a50040;" edge="1" parent="1" target="i6pXBAHcR_zqz3FhFPHY-38">
          <mxGeometry width="50" height="50" relative="1" as="geometry">
            <mxPoint x="385" y="425" as="sourcePoint" />
            <mxPoint x="579" y="425" as="targetPoint" />
            <Array as="points" />
          </mxGeometry>
        </mxCell>
        <mxCell id="i6pXBAHcR_zqz3FhFPHY-55" value="" style="endArrow=none;rounded=0;strokeWidth=10;fontColor=#FF3333;fillColor=#a20025;strokeColor=#a50040;" edge="1" parent="1" target="i6pXBAHcR_zqz3FhFPHY-38">
          <mxGeometry width="50" height="50" relative="1" as="geometry">
            <mxPoint x="383" y="508" as="sourcePoint" />
            <mxPoint x="564" y="580" as="targetPoint" />
            <Array as="points" />
          </mxGeometry>
        </mxCell>
        <mxCell id="i6pXBAHcR_zqz3FhFPHY-56" value="" style="endArrow=none;rounded=0;strokeWidth=10;fontColor=#FF3333;fillColor=#a20025;strokeColor=#a50040;exitX=1;exitY=0.5;exitDx=0;exitDy=0;" edge="1" parent="1" source="i6pXBAHcR_zqz3FhFPHY-8" target="i6pXBAHcR_zqz3FhFPHY-38">
          <mxGeometry width="50" height="50" relative="1" as="geometry">
            <mxPoint x="383" y="102" as="sourcePoint" />
            <mxPoint x="564" y="174" as="targetPoint" />
            <Array as="points" />
          </mxGeometry>
        </mxCell>
        <mxCell id="i6pXBAHcR_zqz3FhFPHY-57" value="" style="endArrow=none;rounded=0;strokeWidth=10;fontColor=#FF3333;fillColor=#a20025;strokeColor=#a50040;" edge="1" parent="1">
          <mxGeometry width="50" height="50" relative="1" as="geometry">
            <mxPoint x="576" y="88" as="sourcePoint" />
            <mxPoint x="393" y="514" as="targetPoint" />
            <Array as="points" />
          </mxGeometry>
        </mxCell>
        <mxCell id="i6pXBAHcR_zqz3FhFPHY-58" value="" style="endArrow=none;rounded=0;strokeWidth=10;fontColor=#FF3333;fillColor=#a20025;strokeColor=#a50040;" edge="1" parent="1" target="i6pXBAHcR_zqz3FhFPHY-38">
          <mxGeometry width="50" height="50" relative="1" as="geometry">
            <mxPoint x="388" y="178" as="sourcePoint" />
            <mxPoint x="585" y="557" as="targetPoint" />
            <Array as="points" />
          </mxGeometry>
        </mxCell>
        <mxCell id="i6pXBAHcR_zqz3FhFPHY-59" value="" style="endArrow=none;rounded=0;strokeWidth=10;fontColor=#FF3333;fillColor=#a20025;strokeColor=#a50040;" edge="1" parent="1">
          <mxGeometry width="50" height="50" relative="1" as="geometry">
            <mxPoint x="574" y="90" as="sourcePoint" />
            <mxPoint x="386" y="431" as="targetPoint" />
            <Array as="points" />
          </mxGeometry>
        </mxCell>
        <mxCell id="i6pXBAHcR_zqz3FhFPHY-9" value="" style="ellipse;whiteSpace=wrap;html=1;aspect=fixed;strokeColor=#001DBC;fillColor=#000099;fontColor=#ffffff;" vertex="1" parent="1">
          <mxGeometry x="340" y="478" width="60" height="60" as="geometry" />
        </mxCell>
        <mxCell id="i6pXBAHcR_zqz3FhFPHY-11" value="" style="ellipse;whiteSpace=wrap;html=1;aspect=fixed;strokeColor=#001DBC;fillColor=#000099;fontColor=#ffffff;" vertex="1" parent="1">
          <mxGeometry x="340" y="390" width="60" height="60" as="geometry" />
        </mxCell>
        <mxCell id="i6pXBAHcR_zqz3FhFPHY-10" value="" style="ellipse;whiteSpace=wrap;html=1;aspect=fixed;strokeColor=#001DBC;fillColor=#000099;fontColor=#ffffff;" vertex="1" parent="1">
          <mxGeometry x="340" y="149" width="60" height="60" as="geometry" />
        </mxCell>
        <mxCell id="i6pXBAHcR_zqz3FhFPHY-8" value="" style="ellipse;whiteSpace=wrap;html=1;aspect=fixed;strokeColor=#001DBC;fillColor=#000099;fontColor=#ffffff;" vertex="1" parent="1">
          <mxGeometry x="340" y="60" width="60" height="60" as="geometry" />
        </mxCell>
        <mxCell id="i6pXBAHcR_zqz3FhFPHY-60" value="$$h_2(W_1,P_2(t))$$" style="text;html=1;strokeColor=none;fillColor=none;align=center;verticalAlign=middle;whiteSpace=wrap;rounded=0;rotation=0;fontFamily=Comic Sans MS;fontSize=20;" vertex="1" parent="1">
          <mxGeometry x="419" y="24" width="127" height="74" as="geometry" />
        </mxCell>
        <mxCell id="i6pXBAHcR_zqz3FhFPHY-61" value="" style="endArrow=none;rounded=0;strokeWidth=10;fontColor=#FF3333;fillColor=#60a917;strokeColor=#2D7600;exitX=1;exitY=0.5;exitDx=0;exitDy=0;" edge="1" parent="1" target="i6pXBAHcR_zqz3FhFPHY-12">
          <mxGeometry width="50" height="50" relative="1" as="geometry">
            <mxPoint x="602" y="81" as="sourcePoint" />
            <mxPoint x="783" y="472" as="targetPoint" />
            <Array as="points" />
          </mxGeometry>
        </mxCell>
        <mxCell id="i6pXBAHcR_zqz3FhFPHY-62" value="" style="endArrow=none;rounded=0;strokeWidth=10;fontColor=#FF3333;fillColor=#60a917;strokeColor=#2D7600;" edge="1" parent="1" target="i6pXBAHcR_zqz3FhFPHY-12">
          <mxGeometry width="50" height="50" relative="1" as="geometry">
            <mxPoint x="601" y="507.5" as="sourcePoint" />
            <mxPoint x="782" y="507.5" as="targetPoint" />
            <Array as="points" />
          </mxGeometry>
        </mxCell>
        <mxCell id="i6pXBAHcR_zqz3FhFPHY-37" value="" style="ellipse;whiteSpace=wrap;html=1;aspect=fixed;strokeColor=#001DBC;fillColor=#000099;fontColor=#ffffff;" vertex="1" parent="1">
          <mxGeometry x="564" y="60" width="60" height="60" as="geometry" />
        </mxCell>
        <mxCell id="i6pXBAHcR_zqz3FhFPHY-38" value="" style="ellipse;whiteSpace=wrap;html=1;aspect=fixed;strokeColor=#001DBC;fillColor=#000099;fontColor=#ffffff;" vertex="1" parent="1">
          <mxGeometry x="564" y="478" width="60" height="60" as="geometry" />
        </mxCell>
        <mxCell id="i6pXBAHcR_zqz3FhFPHY-63" value="" style="endArrow=none;rounded=0;strokeWidth=10;fontColor=#FF3333;fillColor=#60a917;strokeColor=#2D7600;" edge="1" parent="1">
          <mxGeometry width="50" height="50" relative="1" as="geometry">
            <mxPoint x="617" y="623" as="sourcePoint" />
            <mxPoint x="811" y="623" as="targetPoint" />
            <Array as="points" />
          </mxGeometry>
        </mxCell>
        <mxCell id="i6pXBAHcR_zqz3FhFPHY-64" value="FC Readout Layer" style="text;html=1;strokeColor=none;fillColor=none;align=center;verticalAlign=middle;whiteSpace=wrap;rounded=0;fontFamily=Comic Sans MS;fontSize=20;" vertex="1" parent="1">
          <mxGeometry x="691" y="649" width="60" height="30" as="geometry" />
        </mxCell>
      </root>
    </mxGraphModel>
  </diagram>
</mxfile>
